<?xml version="1.0" standalone="no"?>
<!DOCTYPE svg PUBLIC "-//W3C//DTD SVG 20010904//EN"
 "http://www.w3.org/TR/2001/REC-SVG-20010904/DTD/svg10.dtd">
<svg version="1.0" xmlns="http://www.w3.org/2000/svg"
 width="101.000000pt" height="171.000000pt" viewBox="0 0 101.000000 171.000000"
 preserveAspectRatio="xMidYMid meet">

<g transform="translate(0.000000,171.000000) scale(0.100000,-0.100000)"
fill="#000000" stroke="none">
<path d="M169 1681 l-29 -29 0 -571 0 -571 -41 0 c-31 0 -47 -6 -70 -29 l-29
-29 0 -192 0 -192 29 -29 29 -29 442 0 442 0 29 29 29 29 0 192 0 192 -29 29
c-23 23 -39 29 -70 29 l-41 0 0 569 c0 313 -3 577 -6 586 -11 27 -60 45 -124
45 -55 0 -65 -3 -91 -29 l-29 -29 0 -571 0 -571 -110 0 -110 0 0 555 c0 605
-1 614 -55 635 -15 6 -51 10 -81 10 -48 0 -60 -4 -85 -29z m172 -10 l24 -19 3
-571 2 -571 -105 0 -105 0 0 567 0 567 22 23 c29 31 123 33 159 4z m479 -1
c20 -20 20 -33 20 -590 l0 -570 -105 0 -105 0 0 567 0 567 22 23 c30 32 137
34 168 3z m137 -1202 c22 -21 23 -26 23 -210 0 -175 -1 -189 -20 -208 -19 -19
-33 -20 -457 -20 -435 0 -437 0 -460 22 -22 21 -23 26 -23 207 0 176 1 186 22
208 l21 23 436 0 c433 0 435 0 458 -22z"/>
</g>
</svg>
