<?xml version="1.0" encoding="UTF-8"?>
<svg version="1.1" xmlns="http://www.w3.org/2000/svg" width="50" height="41">
<path d="M0 0 C0.82876144 -0.00807175 1.65752289 -0.01614349 2.51139832 -0.02445984 C4.2674246 -0.03830096 6.02347779 -0.04902299 7.77954102 -0.05688477 C10.45966884 -0.07408526 13.13855903 -0.11796801 15.81835938 -0.16210938 C17.52473051 -0.17223754 19.23111214 -0.18075326 20.9375 -0.1875 C21.73662308 -0.20500809 22.53574615 -0.22251617 23.35908508 -0.24055481 C27.32766551 -0.22515556 29.21749253 -0.04887476 32.65112305 2.13989258 C37.3339091 7.01200807 35.93275422 13.65385307 35.98046875 20.05078125 C36.00947266 21.33533203 36.03847656 22.61988281 36.06835938 23.94335938 C36.07673828 25.18150391 36.08511719 26.41964844 36.09375 27.6953125 C36.10833252 28.8294458 36.12291504 29.9635791 36.13793945 31.13208008 C35.56728343 34.90374586 34.30272959 36.53424107 31.66796875 39.23828125 C28.43487033 40.85483046 24.89001518 40.4439571 21.3359375 40.4765625 C20.50717606 40.48463425 19.67841461 40.49270599 18.82453918 40.50102234 C17.0685129 40.51486346 15.31245971 40.52558549 13.55639648 40.53344727 C10.87626866 40.55064776 8.19737847 40.59453051 5.51757812 40.63867188 C3.81120699 40.64880004 2.10482536 40.65731576 0.3984375 40.6640625 C-0.40068558 40.68157059 -1.19980865 40.69907867 -2.02314758 40.71711731 C-5.99172801 40.70171806 -7.88155503 40.52543726 -11.31518555 38.33666992 C-15.9979716 33.46455443 -14.59681672 26.82270943 -14.64453125 20.42578125 C-14.67353516 19.14123047 -14.70253906 17.85667969 -14.73242188 16.53320312 C-14.74080078 15.29505859 -14.74917969 14.05691406 -14.7578125 12.78125 C-14.77239502 11.6471167 -14.78697754 10.5129834 -14.80200195 9.34448242 C-14.23134593 5.57281664 -12.96679209 3.94232143 -10.33203125 1.23828125 C-7.09893283 -0.37826796 -3.55407768 0.0326054 0 0 Z M-10.83398438 3.87304688 C-12.78136012 6.94771705 -12.84874506 8.98338588 -12.86328125 12.61328125 C-12.8684375 13.845625 -12.87359375 15.07796875 -12.87890625 16.34765625 C-12.8634375 17.6315625 -12.84796875 18.91546875 -12.83203125 20.23828125 C-12.8475 21.5221875 -12.86296875 22.80609375 -12.87890625 24.12890625 C-12.87375 25.36125 -12.86859375 26.59359375 -12.86328125 27.86328125 C-12.85876953 28.98992188 -12.85425781 30.1165625 -12.84960938 31.27734375 C-12.51996885 34.27451519 -12.51996885 34.27451519 -10.83398438 36.60131836 C-7.26430723 38.93686532 -3.89968989 38.83035766 0.23046875 38.8046875 C1.05877197 38.81088608 1.8870752 38.81708466 2.74047852 38.82347107 C4.48875759 38.83056342 6.23710429 38.82740536 7.98535156 38.81469727 C10.65946699 38.80082535 13.33008607 38.83491271 16.00390625 38.87304688 C17.70442794 38.87399806 19.404954 38.87213927 21.10546875 38.8671875 C21.903479 38.88044571 22.70148926 38.89370392 23.52368164 38.90736389 C27.30203721 38.84401973 29.26470382 38.58456651 32.16992188 36.08984375 C33.90127305 32.7941818 34.18371107 30.69486352 34.19921875 26.984375 C34.204375 25.80037109 34.20953125 24.61636719 34.21484375 23.39648438 C34.199375 22.16865234 34.18390625 20.94082031 34.16796875 19.67578125 C34.1834375 18.44408203 34.19890625 17.21238281 34.21484375 15.94335938 C34.20710938 14.16928711 34.20710938 14.16928711 34.19921875 12.359375 C34.19470703 11.28099365 34.19019531 10.2026123 34.18554688 9.09155273 C33.844927 6.18886002 33.844927 6.18886002 32.16992188 3.88891602 C28.59966467 1.53347993 25.24306409 1.66504959 21.10546875 1.70703125 C20.27716553 1.70320435 19.4488623 1.69937744 18.59545898 1.69543457 C16.84715558 1.692717 15.09881141 1.70006744 13.35058594 1.71679688 C10.67681098 1.73821043 8.00572279 1.71699181 5.33203125 1.69140625 C3.6315045 1.69404956 1.93097941 1.6991746 0.23046875 1.70703125 C-0.5675415 1.69893433 -1.36555176 1.6908374 -2.18774414 1.68249512 C-5.63526277 1.74064111 -7.91789426 1.96768589 -10.83398438 3.87304688 Z " fill="#000000" transform="translate(14.33203125,-0.23828125)"/>
<path d="M0 0 C3.1359157 1.77984405 3.84102736 2.52308207 5 6 C5.24874332 8.95401536 5.23115464 11.91156767 5.25 14.875 C5.270625 15.67808594 5.29125 16.48117188 5.3125 17.30859375 C5.34362543 22.03187731 5.09086599 25.17392803 2 29 C-0.80915474 30.40457737 -2.88810534 30.24895157 -6 30 C-9.1359157 28.22015595 -9.84102736 27.47691793 -11 24 C-11.24874332 21.04598464 -11.23115464 18.08843233 -11.25 15.125 C-11.270625 14.32191406 -11.29125 13.51882812 -11.3125 12.69140625 C-11.34362543 7.96812269 -11.09086599 4.82607197 -8 1 C-5.19084526 -0.40457737 -3.11189466 -0.24895157 0 0 Z M-7.6640625 3.46875 C-9.66489163 7.25979467 -9.43568518 10.77900825 -9.375 15 C-9.38660156 15.80695312 -9.39820312 16.61390625 -9.41015625 17.4453125 C-9.39267871 20.97577604 -9.33055345 23.37368819 -7.6640625 26.53125 C-5.98485072 28.2746181 -5.98485072 28.2746181 -3 28.5 C-0.01514928 28.2746181 -0.01514928 28.2746181 1.6640625 26.53125 C3.66489163 22.74020533 3.43568518 19.22099175 3.375 15 C3.38660156 14.19304688 3.39820313 13.38609375 3.41015625 12.5546875 C3.39267871 9.02422396 3.33055345 6.62631181 1.6640625 3.46875 C-0.01514928 1.7253819 -0.01514928 1.7253819 -3 1.5 C-5.98485072 1.7253819 -5.98485072 1.7253819 -7.6640625 3.46875 Z " fill="#000000" transform="translate(40,5)"/>
</svg>
