<?xml version="1.0" standalone="no"?>
<!DOCTYPE svg PUBLIC "-//W3C//DTD SVG 20010904//EN"
 "http://www.w3.org/TR/2001/REC-SVG-20010904/DTD/svg10.dtd">
<svg version="1.0" xmlns="http://www.w3.org/2000/svg"
 width="293.000000pt" height="429.000000pt" viewBox="0 0 293.000000 429.000000"
 preserveAspectRatio="xMidYMid meet">

<g transform="translate(0.000000,429.000000) scale(0.100000,-0.100000)"
fill="#000000" stroke="none">
<path d="M107 4224 c-4 -4 -7 -379 -7 -833 0 -454 -3 -1365 -6 -2023 l-7
-1197 207 -3 c114 -2 215 0 224 4 14 5 14 7 2 9 -33 5 -62 6 -233 8 l-177 1 2
428 3 427 80 8 c44 4 135 8 203 7 74 0 122 4 122 10 0 6 -76 10 -207 10 l-206
0 6 197 c4 108 7 297 7 420 l0 223 170 0 c99 0 170 4 170 9 0 6 17 11 38 13
20 2 -55 7 -168 12 -113 4 -208 12 -211 17 -3 5 -4 20 -3 32 1 12 3 201 3 420
l1 397 173 1 c113 0 186 5 212 14 36 12 18 13 -172 14 -163 1 -213 4 -214 14
-3 54 3 852 7 859 3 4 74 9 157 10 103 1 136 3 102 8 -41 6 -31 7 52 8 73 2
103 -1 106 -10 3 -8 6 -6 6 4 1 16 -17 18 -211 20 l-213 3 4 220 c2 121 5 222
7 225 1 3 36 3 76 -1 40 -4 243 -8 452 -8 l378 -1 -3 -165 c-2 -91 -1 -165 3
-165 14 0 19 67 16 210 l-3 145 -471 3 c-259 1 -473 -1 -477 -4z"/>
<path d="M1665 4222 c-27 -2 -54 -7 -58 -11 -4 -4 245 -8 555 -8 445 0 517 1
343 7 -267 10 -771 17 -840 12z"/>
<path d="M2743 4203 c9 -2 25 -2 35 0 9 3 1 5 -18 5 -19 0 -27 -2 -17 -5z"/>
<path d="M2808 4203 c6 -2 18 -2 25 0 6 3 1 5 -13 5 -14 0 -19 -2 -12 -5z"/>
<path d="M2858 4158 c5 -95 9 -104 11 -25 0 42 -2 77 -6 77 -5 0 -7 -24 -5
-52z"/>
<path d="M1686 4069 c5 -68 4 -78 -12 -89 -18 -11 -18 -11 -1 -6 10 3 21 6 23
6 9 0 3 136 -7 150 -7 11 -8 -8 -3 -61z"/>
<path d="M1982 4000 c0 -14 2 -19 5 -12 2 6 2 18 0 25 -3 6 -5 1 -5 -13z"/>
<path d="M1440 3966 c0 -9 5 -16 10 -16 6 0 10 4 10 9 0 6 -4 13 -10 16 -5 3
-10 -1 -10 -9z"/>
<path d="M1987 3963 c-11 -10 -8 -63 3 -63 6 0 10 16 10 35 0 36 -2 40 -13 28z"/>
<path d="M1608 3953 c18 -2 45 -2 60 0 15 2 0 4 -33 4 -33 0 -45 -2 -27 -4z"/>
<path d="M1687 3903 c-11 -10 -8 -43 3 -43 6 0 10 11 10 25 0 26 -2 29 -13 18z"/>
<path d="M1950 3851 c0 -39 4 -51 15 -51 12 0 15 -14 15 -70 0 -66 1 -70 23
-69 12 0 16 3 10 6 -9 3 -13 28 -13 74 0 53 -4 71 -15 75 -9 4 -15 19 -15 39
0 19 -4 37 -10 40 -6 4 -10 -13 -10 -44z"/>
<path d="M1181 3855 c3 -2 41 -5 84 -5 44 -1 104 -4 133 -7 51 -5 52 -6 52
-39 0 -18 4 -35 9 -38 5 -3 7 9 5 27 -1 17 -3 40 -3 50 -1 15 -15 17 -143 17
-78 0 -139 -2 -137 -5z"/>
<path d="M1633 3773 c15 -2 37 -2 50 0 12 2 0 4 -28 4 -27 0 -38 -2 -22 -4z"/>
<path d="M1168 3763 l-128 -4 0 -74 c0 -43 4 -75 10 -75 6 0 10 30 10 70 l0
70 115 0 115 0 1 -47 c1 -56 5 -48 12 20 2 26 2 46 -2 45 -3 -1 -63 -4 -133
-5z"/>
<path d="M2437 3680 c3 -11 9 -20 14 -20 11 0 11 3 3 24 -9 23 -23 20 -17 -4z"/>
<path d="M2854 3619 c0 -32 3 -59 8 -59 10 0 11 107 0 113 -4 3 -7 -21 -8 -54z"/>
<path d="M2103 3663 c20 -2 54 -2 75 0 20 2 3 4 -38 4 -41 0 -58 -2 -37 -4z"/>
<path d="M2228 3663 c7 -3 16 -2 19 1 4 3 -2 6 -13 5 -11 0 -14 -3 -6 -6z"/>
<path d="M2268 3663 c7 -3 16 -2 19 1 4 3 -2 6 -13 5 -11 0 -14 -3 -6 -6z"/>
<path d="M1070 3620 c0 -6 45 -9 118 -9 98 2 108 3 62 9 -82 12 -180 12 -180
0z"/>
<path d="M1954 3368 l1 -203 169 -3 c94 -1 168 0 165 2 -3 4 -88 8 -301 15
-17 1 -18 17 -18 196 0 107 -4 195 -9 195 -5 0 -8 -91 -7 -202z"/>
<path d="M1153 3413 c-20 -3 -33 -10 -33 -19 0 -11 -15 -14 -65 -14 l-65 0 0
-154 0 -154 50 -7 50 -7 0 -38 c0 -22 4 -41 10 -45 5 -3 8 16 7 47 l-2 53 -53
3 -52 3 1 140 1 139 64 0 c48 0 66 4 70 15 4 8 18 15 33 16 27 0 75 17 54 18
-6 1 -17 3 -25 4 -7 2 -28 2 -45 0z"/>
<path d="M1298 3373 l42 -4 0 -125 c0 -104 2 -124 15 -124 11 0 15 -11 15 -39
0 -22 5 -43 10 -46 6 -4 10 13 10 44 0 45 -2 51 -21 51 -21 0 -22 3 -17 125
l5 125 -51 -2 c-50 -1 -50 -2 -8 -5z"/>
<path d="M2380 3170 c0 -5 5 -10 10 -10 6 0 10 5 10 10 0 6 -4 10 -10 10 -5 0
-10 -4 -10 -10z"/>
<path d="M2850 3126 c0 -31 5 -56 10 -56 6 0 10 22 10 49 0 28 -4 53 -10 56
-6 4 -10 -15 -10 -49z"/>
<path d="M1940 2909 c0 -117 3 -178 10 -174 6 4 10 75 10 181 0 109 -4 174
-10 174 -6 0 -10 -67 -10 -181z"/>
<path d="M2018 3083 c12 -2 32 -2 45 0 12 2 2 4 -23 4 -25 0 -35 -2 -22 -4z"/>
<path d="M1226 3073 c-9 -10 -7 -63 3 -63 11 0 20 59 11 65 -4 3 -10 2 -14 -2z"/>
<path d="M1270 3004 c0 -11 16 -14 63 -13 69 1 67 4 -10 17 -43 7 -53 7 -53
-4z"/>
<path d="M1198 2993 c6 -2 18 -2 25 0 6 3 1 5 -13 5 -14 0 -19 -2 -12 -5z"/>
<path d="M1015 2811 c-20 -4 -26 -9 -17 -14 14 -10 52 0 52 14 0 5 -1 8 -2 8
-2 -1 -16 -4 -33 -8z"/>
<path d="M1337 2758 c-3 -35 -2 -99 2 -143 7 -75 8 -71 9 63 1 78 0 142 -2
142 -2 0 -6 -28 -9 -62z"/>
<path d="M2381 2768 l-1 -38 98 0 c53 -1 148 -3 210 -6 78 -4 112 -3 112 5 0
8 -60 11 -199 11 l-198 0 -11 33 -10 32 -1 -37z"/>
<path d="M2850 2553 c0 -157 4 -233 10 -223 13 20 13 447 0 455 -7 4 -10 -76
-10 -232z"/>
<path d="M998 2732 c-2 -15 -1 -38 3 -52 4 -17 6 -9 7 28 1 57 -3 68 -10 24z"/>
<path d="M1996 2742 c-8 -13 343 -22 359 -9 5 4 -49 7 -120 7 -72 0 -153 3
-181 6 -32 4 -54 2 -58 -4z"/>
<path d="M1002 2620 c0 -14 2 -19 5 -12 2 6 2 18 0 25 -3 6 -5 1 -5 -13z"/>
<path d="M1002 2550 c0 -14 2 -19 5 -12 2 6 2 18 0 25 -3 6 -5 1 -5 -13z"/>
<path d="M992 2448 l3 -43 180 0 180 -1 -170 3 c-178 4 -190 7 -180 50 3 12 0
25 -6 28 -7 5 -9 -8 -7 -37z"/>
<path d="M2031 2263 c-1 -51 3 -93 7 -93 5 0 9 6 9 13 5 72 3 126 -5 147 -9
20 -11 6 -11 -67z"/>
<path d="M2420 2256 c0 -51 4 -86 10 -86 6 0 10 33 10 79 0 44 -4 83 -10 86
-6 4 -10 -25 -10 -79z"/>
<path d="M2810 2255 c0 -55 4 -84 10 -80 6 3 10 39 10 80 0 41 -4 77 -10 80
-6 4 -10 -25 -10 -80z"/>
<path d="M2848 2075 c-2 -87 0 -115 10 -115 9 0 12 29 12 109 0 149 -18 154
-22 6z"/>
<path d="M2030 1895 c0 -62 3 -85 10 -75 5 8 10 42 10 75 0 33 -5 67 -10 75
-7 10 -10 -13 -10 -75z"/>
<path d="M2420 1891 c0 -50 4 -91 9 -91 12 0 14 167 1 175 -7 4 -10 -24 -10
-84z"/>
<path d="M2800 1890 c0 -49 4 -90 9 -90 10 0 25 155 16 170 -17 27 -25 2 -25
-80z"/>
<path d="M2851 1698 c2 -102 3 -113 9 -68 12 81 11 178 0 185 -6 4 -10 -37 -9
-117z"/>
<path d="M2030 1535 c0 -62 3 -85 10 -75 5 8 10 42 10 75 0 33 -5 67 -10 75
-7 10 -10 -13 -10 -75z"/>
<path d="M2420 1537 c0 -56 4 -86 10 -82 13 8 13 135 0 155 -7 10 -10 -13 -10
-73z"/>
<path d="M2800 1529 c0 -57 4 -88 10 -84 6 3 10 44 10 91 0 49 -4 84 -10 84
-6 0 -10 -37 -10 -91z"/>
<path d="M2846 1429 c-9 -45 -6 -170 4 -194 5 -13 9 25 9 103 1 67 -1 122 -3
122 -2 0 -6 -14 -10 -31z"/>
<path d="M2030 1178 c0 -66 3 -89 10 -78 12 17 10 170 -2 170 -4 0 -8 -42 -8
-92z"/>
<path d="M2420 1179 c1 -71 3 -90 11 -76 11 19 8 152 -4 163 -4 4 -7 -35 -7
-87z"/>
<path d="M2800 1175 c0 -50 4 -85 10 -85 6 0 10 35 10 85 0 50 -4 85 -10 85
-6 0 -10 -35 -10 -85z"/>
<path d="M2842 965 c3 -143 21 -172 26 -43 4 95 -5 168 -19 168 -6 0 -8 -49
-7 -125z"/>
<path d="M987 958 c-7 -4 40 -8 103 -8 63 0 122 5 130 10 18 12 -215 9 -233
-2z"/>
<path d="M1222 870 c-1 -39 2 -49 8 -34 4 11 5 36 0 55 -7 31 -8 29 -8 -21z"/>
<path d="M2030 793 c0 -47 2 -84 5 -81 9 9 11 168 3 168 -5 0 -8 -39 -8 -87z"/>
<path d="M2420 794 c0 -58 3 -83 11 -79 12 8 9 165 -3 165 -4 0 -8 -39 -8 -86z"/>
<path d="M2800 789 c0 -57 4 -88 10 -84 6 3 10 44 10 91 0 49 -4 84 -10 84 -6
0 -10 -37 -10 -91z"/>
<path d="M991 854 c0 -11 3 -14 6 -6 3 7 2 16 -1 19 -3 4 -6 -2 -5 -13z"/>
<path d="M997 804 c-18 -18 15 -24 125 -24 67 0 119 3 115 6 -3 4 -58 6 -122
5 -80 -2 -115 1 -110 8 7 12 2 15 -8 5z"/>
<path d="M1049 658 c0 -46 -1 -113 -2 -151 -1 -37 1 -67 6 -67 4 0 7 68 7 150
0 83 -2 150 -5 150 -3 0 -5 -37 -6 -82z"/>
<path d="M2851 665 c-1 -5 -5 -57 -7 -115 -3 -75 -2 -102 6 -94 7 7 10 50 7
115 -1 57 -4 100 -6 94z"/>
<path d="M1242 600 c0 -14 2 -19 5 -12 2 6 2 18 0 25 -3 6 -5 1 -5 -13z"/>
<path d="M1242 510 c0 -19 2 -27 5 -17 2 9 2 25 0 35 -3 9 -5 1 -5 -18z"/>
<path d="M2034 410 c0 -52 1 -74 3 -47 2 26 2 68 0 95 -2 26 -3 4 -3 -48z"/>
<path d="M2418 441 c-1 -32 0 -72 3 -87 4 -17 7 8 8 59 1 99 -5 117 -11 28z"/>
<path d="M2800 412 c0 -51 4 -91 8 -88 12 7 13 148 2 166 -7 10 -10 -14 -10
-78z"/>
<path d="M1362 274 c-7 -8 -11 -22 -9 -32 4 -15 5 -15 6 1 0 10 6 15 11 12 6
-4 8 -11 5 -16 -4 -5 -2 -9 3 -9 5 0 12 14 14 30 5 33 -9 39 -30 14z"/>
<path d="M2848 284 c-5 -4 -8 -51 -8 -105 l0 -98 -1180 5 c-801 3 -1180 1
-1180 -6 0 -6 71 -10 203 -10 111 0 641 -3 1177 -5 536 -3 981 -2 988 3 9 6
12 37 10 116 -2 59 -6 104 -10 100z"/>
</g>
</svg>
