<?xml version="1.0" standalone="no"?>
<!DOCTYPE svg PUBLIC "-//W3C//DTD SVG 20010904//EN"
 "http://www.w3.org/TR/2001/REC-SVG-20010904/DTD/svg10.dtd">
<svg version="1.0" xmlns="http://www.w3.org/2000/svg"
 width="986.000000pt" height="496.000000pt" viewBox="0 0 986.000000 496.000000"
 preserveAspectRatio="xMidYMid meet">

<g transform="translate(0.000000,496.000000) scale(0.100000,-0.100000)"
fill="#000000" stroke="none">
<path d="M1 2475 l-3 -2475 4931 0 4931 0 0 2475 0 2475 -4927 0 -4928 0 -4
-2475z m3679 2225 l0 -220 -1205 0 -1205 0 0 220 0 220 1205 0 1205 0 0 -220z
m2450 -25 l0 -245 -595 0 -595 0 0 245 0 245 595 0 595 0 0 -245z m3700 -25
l0 -270 -1345 0 -1345 0 0 270 0 270 1345 0 1345 0 0 -270z m-9290 -65 l0
-325 -245 0 -245 0 0 325 0 325 245 0 245 0 0 -325z m720 105 l0 -220 1215 0
1215 0 0 220 0 220 610 0 610 0 0 -365 0 -365 -65 0 -65 0 0 -305 0 -305 65 0
65 0 0 -1020 0 -1020 25 0 25 0 0 1020 0 1020 65 0 65 0 0 305 0 305 -65 0
-65 0 0 120 0 120 590 0 590 0 0 240 0 240 495 0 495 0 0 -265 0 -265 1340 0
1340 0 0 -280 0 -280 -305 0 -305 0 0 -1215 0 -1215 305 0 305 0 0 -375 0
-375 -1137 -3 -1138 -2 1148 -3 1147 -2 0 -293 0 -294 -1717 -6 c-2717 -11
-3083 -10 -3083 8 0 10 -11 15 -35 15 l-35 0 0 435 0 435 -25 0 -25 0 0 -440
0 -440 -285 0 c-183 0 -285 -4 -285 -10 0 -7 -308 -10 -905 -10 -597 0 -905 3
-905 10 0 6 -122 10 -345 10 -223 0 -345 -4 -345 -10 0 -7 -309 -10 -906 -10
l-907 0 7 627 c4 345 10 631 12 635 3 5 106 8 230 8 l224 0 0 1210 0 1210
-227 2 -228 3 -3 268 -2 267 255 0 255 0 0 330 0 330 355 0 355 0 0 -220z
m3820 -815 l0 -295 -145 0 -145 0 0 295 0 295 145 0 145 0 0 -295z m4720
-1280 l0 -1205 -295 0 -295 0 0 1205 0 1205 295 0 295 0 0 -1205z m-9310 -95
l0 -1200 -215 0 -215 0 0 1200 0 1200 215 0 215 0 0 -1200z"/>
<path d="M2260 4705 c0 -30 5 -55 10 -55 6 0 10 9 10 20 0 13 7 20 19 20 10 0
21 -9 24 -20 10 -37 25 -20 25 28 -1 53 -9 62 -55 62 l-33 0 0 -55z m60 20 c0
-8 -9 -15 -20 -15 -20 0 -26 11 -13 23 12 13 33 7 33 -8z"/>
<path d="M2530 4705 c0 -42 3 -55 15 -55 8 0 15 8 15 18 1 16 1 16 11 0 5 -10
17 -18 25 -18 13 0 13 2 0 22 -12 16 -13 25 -4 35 15 18 2 29 -17 13 -13 -11
-15 -9 -15 14 0 16 -5 26 -15 26 -12 0 -15 -13 -15 -55z"/>
<path d="M2377 4723 c-15 -14 -6 -24 16 -18 18 5 17 3 -5 -10 -37 -21 -27 -45
18 -45 28 0 34 4 34 21 0 44 -39 76 -63 52z m33 -47 c0 -3 -4 -8 -10 -11 -5
-3 -10 -1 -10 4 0 6 5 11 10 11 6 0 10 -2 10 -4z"/>
<path d="M2460 4716 c-6 -8 -10 -25 -8 -38 2 -18 9 -23 32 -23 16 0 31 6 34
13 3 9 -3 11 -23 6 -23 -6 -26 -4 -23 12 3 13 11 18 26 17 25 -3 30 12 6 21
-23 9 -30 8 -44 -8z"/>
<path d="M5270 4685 c0 -44 0 -45 33 -44 30 2 30 2 5 6 -16 2 -28 10 -28 18 0
8 12 16 28 18 l27 4 -27 2 c-17 0 -28 7 -28 15 0 8 12 17 28 19 25 4 25 4 -5
6 -33 1 -33 0 -33 -44z"/>
<path d="M5409 4715 c-7 -6 2 -75 10 -75 3 0 6 16 5 35 -1 35 -6 49 -15 40z"/>
<path d="M5347 4703 c-11 -10 -8 -63 3 -63 6 0 10 14 10 30 0 40 17 38 29 -2
7 -24 9 -27 10 -11 1 33 -9 53 -28 53 -10 0 -21 -3 -24 -7z"/>
<path d="M5450 4695 c-26 -32 15 -75 44 -45 8 9 6 11 -11 5 -14 -4 -23 -2 -23
4 0 6 9 11 21 11 15 0 19 4 15 16 -3 9 -6 18 -6 20 0 10 -29 3 -40 -11z m35
-5 c3 -5 -1 -10 -9 -10 -9 0 -16 5 -16 10 0 6 4 10 9 10 6 0 13 -4 16 -10z"/>
<path d="M5511 4671 c1 -28 3 -30 6 -11 3 14 9 30 14 36 5 7 3 11 -6 11 -11 0
-15 -11 -14 -36z"/>
<path d="M5554 4699 c-5 -9 -2 -10 9 -6 9 3 19 2 22 -2 2 -5 -4 -11 -15 -14
-32 -8 -25 -37 9 -37 27 0 28 2 22 32 -7 34 -33 49 -47 27z m31 -39 c-3 -5
-10 -10 -16 -10 -5 0 -9 5 -9 10 0 6 7 10 16 10 8 0 12 -4 9 -10z"/>
<path d="M5621 4671 c1 -36 1 -36 8 -6 3 17 11 30 16 30 5 0 13 -13 17 -30 6
-29 6 -29 5 5 -2 29 -6 35 -24 36 -20 1 -23 -3 -22 -35z"/>
<path d="M5685 4691 c-8 -26 4 -51 26 -51 10 0 19 4 19 9 0 5 -8 8 -17 7 -12
-1 -18 6 -18 19 0 13 6 20 17 19 10 -1 15 2 12 7 -9 16 -32 10 -39 -10z"/>
<path d="M5750 4695 c-26 -32 15 -75 44 -45 8 9 6 11 -11 5 -14 -4 -23 -2 -23
4 0 6 9 11 21 11 15 0 19 4 15 16 -3 9 -6 18 -6 20 0 10 -29 3 -40 -11z m35
-5 c3 -5 -1 -10 -9 -10 -9 0 -16 5 -16 10 0 6 4 10 9 10 6 0 13 -4 16 -10z"/>
<path d="M8190 4679 c-17 -31 2 -69 35 -69 51 0 52 82 2 88 -18 2 -29 -3 -37
-19z m55 -24 c0 -37 -28 -46 -45 -15 -9 16 -8 25 1 36 20 24 44 13 44 -21z"/>
<path d="M8283 4688 c-5 -7 -6 -29 -2 -48 6 -35 6 -35 8 -5 2 17 4 38 6 48 4
20 1 22 -12 5z"/>
<path d="M8317 4693 c-4 -3 -7 -24 -7 -46 0 -51 6 -45 13 11 5 44 4 46 -6 35z"/>
<path d="M8377 4673 c-4 -3 -7 -17 -7 -30 0 -26 26 -41 42 -25 8 8 5 9 -11 5
-19 -5 -22 -2 -19 18 2 17 8 23 22 21 11 -2 15 1 11 7 -7 12 -28 14 -38 4z"/>
<path d="M8437 4674 c-4 -4 -7 -18 -7 -31 0 -26 26 -41 42 -25 8 8 5 9 -11 5
-12 -3 -21 -1 -21 6 0 6 9 11 21 11 14 0 19 5 17 17 -3 19 -29 29 -41 17z m33
-14 c0 -5 -7 -10 -16 -10 -8 0 -12 5 -9 10 3 6 10 10 16 10 5 0 9 -4 9 -10z"/>
<path d="M8543 4672 c16 -7 16 -9 3 -27 -22 -29 -20 -35 12 -34 26 1 26 1 3 8
-21 6 -22 8 -7 20 23 19 20 41 -6 40 -20 0 -20 -1 -5 -7z"/>
<path d="M8594 4666 c-10 -26 0 -51 21 -51 16 0 20 7 20 30 0 33 -30 49 -41
21z m36 -21 c0 -16 -6 -25 -15 -25 -15 0 -21 31 -8 43 13 14 23 6 23 -18z"/>
<path d="M8661 4641 c1 -36 1 -36 8 -6 3 17 11 30 16 30 5 0 13 -13 17 -30 6
-29 6 -29 5 5 -2 29 -6 35 -24 36 -20 1 -23 -3 -22 -35z"/>
<path d="M8730 4665 c-6 -8 -9 -23 -5 -35 7 -21 39 -27 51 -9 4 7 0 9 -14 5
-11 -4 -23 -2 -27 4 -4 6 4 10 19 10 28 0 33 9 14 28 -16 16 -23 15 -38 -3z
m35 -5 c3 -5 -1 -10 -9 -10 -9 0 -16 5 -16 10 0 6 4 10 9 10 6 0 13 -4 16 -10z"/>
<path d="M8342 4640 c0 -19 2 -27 5 -17 2 9 2 25 0 35 -3 9 -5 1 -5 -18z"/>
<path d="M277 4853 c-10 -10 -8 -41 3 -48 6 -3 19 -3 30 0 21 7 27 39 9 51 -8
4 -9 0 -4 -15 4 -12 2 -21 -4 -21 -6 0 -11 9 -11 20 0 20 -11 26 -23 13z m10
-25 c-3 -8 -6 -5 -6 6 -1 11 2 17 5 13 3 -3 4 -12 1 -19z"/>
<path d="M270 4771 c0 -25 14 -34 40 -26 19 6 29 45 11 45 -5 0 -8 -8 -7 -17
0 -10 -6 -18 -14 -18 -8 0 -14 8 -14 18 1 9 -2 17 -7 17 -5 0 -9 -9 -9 -19z"/>
<path d="M270 4705 c0 -22 4 -25 33 -24 30 2 30 2 5 6 -16 2 -28 10 -28 18 0
8 12 16 28 18 25 4 25 4 -5 6 -29 1 -33 -2 -33 -24z"/>
<path d="M297 4663 c-39 -6 -34 -45 6 -50 24 -3 27 -1 27 27 0 16 -1 29 -2 29
-2 -1 -16 -4 -31 -6z m-10 -35 c-3 -8 -6 -5 -6 6 -1 11 2 17 5 13 3 -3 4 -12
1 -19z m33 6 c0 -8 -4 -12 -10 -9 -5 3 -10 10 -10 16 0 5 5 9 10 9 6 0 10 -7
10 -16z"/>
<path d="M270 4586 c0 -12 9 -16 33 -15 21 1 25 3 12 6 -11 3 -26 10 -32 15
-10 8 -13 6 -13 -6z"/>
<path d="M277 4553 c-10 -10 -8 -41 3 -48 6 -3 19 -3 30 0 21 7 27 39 9 51 -8
4 -9 0 -4 -15 4 -12 2 -21 -4 -21 -6 0 -11 9 -11 20 0 20 -11 26 -23 13z m10
-25 c-3 -8 -6 -5 -6 6 -1 11 2 17 5 13 3 -3 4 -12 1 -19z"/>
<path d="M254 4478 c-3 -4 11 -8 30 -8 45 0 55 15 10 16 -19 0 -37 -3 -40 -8z"/>
<path d="M277 4453 c-4 -3 -7 -15 -7 -25 0 -14 7 -18 33 -17 31 2 31 2 4 6
-33 5 -31 25 4 34 l24 7 -26 1 c-14 1 -29 -2 -32 -6z"/>
<path d="M241 4363 c-1 -32 0 -33 44 -33 44 0 45 0 44 33 -2 30 -2 30 -6 5 -2
-16 -10 -28 -18 -28 -8 0 -16 12 -18 28 l-4 27 -2 -28 c-1 -34 -22 -32 -32 4
-6 21 -7 21 -8 -8z"/>
<path d="M6431 4193 c1 -27 4 -38 6 -25 6 29 43 31 43 2 0 -11 4 -20 8 -20 8
0 8 14 3 83 -1 4 -14 7 -31 7 -29 0 -30 -1 -29 -47z m49 22 c0 -8 -9 -15 -20
-15 -11 0 -20 7 -20 15 0 8 9 15 20 15 11 0 20 -7 20 -15z"/>
<path d="M6782 4201 c-15 -47 -15 -62 -1 -38 5 9 15 17 21 17 6 0 17 -8 25
-17 13 -16 13 -16 7 7 -22 81 -35 89 -52 31z m28 4 c0 -8 -4 -15 -10 -15 -5 0
-7 7 -4 15 4 8 8 15 10 15 2 0 4 -7 4 -15z"/>
<path d="M6514 4206 c-10 -26 0 -51 21 -51 16 0 20 7 20 30 0 33 -30 49 -41
21z m36 -27 c0 -10 -7 -19 -15 -19 -15 0 -21 31 -9 43 11 10 24 -3 24 -24z"/>
<path d="M6582 4207 c-18 -21 -3 -59 22 -55 16 2 21 10 21 33 0 33 -24 45 -43
22z m35 -31 c-4 -9 -11 -16 -17 -16 -11 0 -14 33 -3 44 11 10 26 -11 20 -28z"/>
<path d="M6647 4213 c-11 -10 -8 -63 3 -63 6 0 10 11 10 24 0 38 20 42 21 4
l1 -33 7 30 c8 38 24 38 33 -1 6 -28 6 -27 5 6 -2 32 -4 35 -38 37 -19 2 -39
0 -42 -4z"/>
<path d="M2020 4085 c0 -28 4 -44 10 -40 6 3 10 13 10 21 0 22 30 16 40 -8 7
-18 8 -14 7 22 -2 43 -3 45 -34 48 -33 3 -33 3 -33 -43z m53 20 c1 -5 -6 -11
-15 -13 -11 -2 -18 3 -18 13 0 17 30 18 33 0z"/>
<path d="M2380 4085 c0 -45 1 -46 28 -43 24 3 27 7 27 43 0 36 -3 40 -27 43
-27 3 -28 2 -28 -43z m38 23 c-6 -18 -28 -21 -28 -4 0 9 7 16 16 16 9 0 14 -5
12 -12z m10 -40 c-7 -19 -38 -22 -38 -4 0 10 9 16 21 16 12 0 19 -5 17 -12z"/>
<path d="M2112 4097 c-18 -21 -3 -59 22 -55 16 2 21 10 21 33 0 33 -24 45 -43
22z m35 -31 c-4 -9 -11 -16 -17 -16 -11 0 -14 33 -3 44 11 10 26 -11 20 -28z"/>
<path d="M2180 4095 c-16 -19 -3 -55 20 -55 21 0 37 40 25 59 -9 15 -30 14
-45 -4z m37 -11 c8 -20 -13 -42 -27 -28 -12 12 -3 44 11 44 5 0 12 -7 16 -16z"/>
<path d="M2241 4070 l1 -35 7 30 c3 17 11 30 16 30 5 0 13 -13 16 -30 7 -30 7
-30 8 -3 2 39 19 44 24 6 l4 -33 1 37 c2 37 2 37 -38 35 -39 -1 -40 -2 -39
-37z"/>
<path d="M7040 2595 l0 -1215 305 0 305 0 0 1215 0 1215 -305 0 -305 0 0
-1215z m600 0 l0 -1205 -295 0 -295 0 0 1205 0 1205 295 0 295 0 0 -1205z"/>
<path d="M8140 2595 l0 -1215 305 0 305 0 0 1215 0 1215 -305 0 -305 0 0
-1215z m600 0 l0 -1205 -295 0 -295 0 0 1205 0 1205 295 0 295 0 0 -1205z"/>
<path d="M5830 2575 l0 -1215 305 0 305 0 0 1215 0 1215 -305 0 -305 0 0
-1215z m600 0 l0 -1205 -295 0 -295 0 0 1205 0 1205 295 0 295 0 0 -1205z"/>
<path d="M6110 2748 c0 -8 5 -19 12 -26 9 -9 6 -12 -15 -12 -15 0 -27 -4 -27
-10 0 -5 25 -10 55 -10 30 0 55 5 55 10 0 6 -8 10 -17 10 -17 1 -17 1 0 14 27
21 22 38 -8 24 -19 -8 -28 -8 -40 2 -12 10 -15 10 -15 -2z"/>
<path d="M6117 2663 c-12 -11 -8 -40 8 -53 9 -7 25 -10 41 -6 20 5 25 12 22
33 -2 15 -9 28 -16 31 -8 2 -11 -5 -10 -20 2 -15 -2 -23 -12 -23 -10 0 -14 8
-13 23 3 21 -7 29 -20 15z"/>
<path d="M6122 2581 c-8 -4 -12 -19 -10 -32 2 -19 10 -24 41 -26 36 -3 37 -3
37 32 0 32 -3 35 -27 35 -16 0 -34 -4 -41 -9z m53 -31 c3 -5 1 -10 -4 -10 -6
0 -11 5 -11 10 0 6 2 10 4 10 3 0 8 -4 11 -10z"/>
<path d="M6084 2485 c-3 -7 -4 -26 -2 -42 3 -26 6 -28 56 -31 42 -2 52 0 52
12 0 9 -9 16 -20 16 -12 0 -20 7 -20 16 0 9 9 18 20 21 37 10 20 22 -31 21
-32 0 -52 -5 -55 -13z m46 -31 c0 -8 -7 -14 -15 -14 -15 0 -21 21 -9 33 10 9
24 -2 24 -19z"/>
<path d="M822 3168 l3 -523 2 518 3 517 220 0 220 0 3 -517 2 -518 3 523 2
522 -230 0 -230 0 2 -522z"/>
<path d="M1672 3168 l3 -523 2 518 3 517 220 0 220 0 3 -517 2 -518 3 523 2
522 -230 0 -230 0 2 -522z"/>
<path d="M2480 3165 l0 -525 230 0 230 0 0 525 0 525 -230 0 -230 0 0 -525z
m450 0 l0 -515 -220 0 -220 0 0 515 0 515 220 0 220 0 0 -515z"/>
<path d="M3332 3168 l3 -523 2 518 3 517 220 0 220 0 3 -517 2 -518 3 523 2
522 -230 0 -230 0 2 -522z"/>
<path d="M4122 3168 l3 -523 2 518 3 517 220 0 220 0 3 -517 2 -518 3 523 2
522 -230 0 -230 0 2 -522z"/>
<path d="M4330 3316 c0 -9 5 -16 10 -16 6 0 10 -4 10 -10 0 -5 -11 -10 -25
-10 -14 0 -25 -4 -25 -10 0 -5 25 -10 55 -10 54 0 72 11 38 24 -14 6 -14 8 3
20 25 19 12 31 -16 16 -16 -9 -25 -9 -36 1 -11 9 -14 8 -14 -5z"/>
<path d="M4334 3236 c-13 -33 0 -51 36 -51 30 0 35 4 38 26 2 17 -3 29 -13 32
-12 5 -14 1 -9 -18 5 -21 3 -25 -16 -25 -19 0 -21 4 -16 25 7 27 -11 36 -20
11z"/>
<path d="M4337 3153 c-13 -12 -7 -53 7 -53 9 0 13 8 10 23 -3 15 -1 14 7 -6
15 -38 43 -32 47 11 3 30 2 32 -31 32 -18 0 -37 -3 -40 -7z m58 -22 c3 -5 1
-12 -5 -16 -5 -3 -10 1 -10 9 0 18 6 21 15 7z"/>
<path d="M4310 3066 c-5 -5 -10 -25 -10 -43 l0 -33 55 0 c30 0 55 5 55 10 0 6
-9 10 -20 10 -13 0 -20 7 -20 20 0 13 7 20 20 20 11 0 20 6 20 13 0 17 -84 19
-100 3z m40 -36 c0 -11 -7 -20 -15 -20 -8 0 -15 9 -15 20 0 11 7 20 15 20 8 0
15 -9 15 -20z"/>
<path d="M6723 2823 c-20 -8 -15 -51 7 -63 28 -15 60 4 60 35 0 34 -18 41 -23
8 l-4 -28 -2 28 c-1 26 -11 31 -38 20z"/>
<path d="M6680 2730 c0 -5 25 -10 55 -10 30 0 55 5 55 10 0 6 -25 10 -55 10
-30 0 -55 -4 -55 -10z"/>
<path d="M6716 2688 c-21 -47 18 -73 42 -28 l14 25 -7 -28 c-4 -21 -2 -28 7
-25 7 3 14 19 16 36 3 27 0 32 -18 32 -14 0 -24 -8 -28 -22 -6 -23 -6 -23 -13
2 -5 21 -7 22 -13 8z"/>
<path d="M6686 2611 c-4 -7 -5 -15 -2 -18 9 -9 19 4 14 18 -4 11 -6 11 -12 0z"/>
<path d="M6710 2605 c0 -11 11 -15 40 -15 29 0 40 4 40 15 0 11 -11 15 -40 15
-29 0 -40 -4 -40 -15z"/>
<path d="M2173 2525 c-17 -44 -18 -55 -7 -55 8 0 14 5 14 10 0 6 11 10 25 10
14 0 25 -4 25 -10 0 -5 6 -10 14 -10 11 0 10 11 -7 55 -11 30 -25 55 -32 55
-7 0 -21 -25 -32 -55z m41 0 c3 -9 0 -15 -9 -15 -9 0 -12 6 -9 15 4 8 7 15 9
15 2 0 5 -7 9 -15z"/>
<path d="M2270 2570 c0 -5 5 -10 10 -10 6 0 10 5 10 10 0 6 -4 10 -10 10 -5 0
-10 -4 -10 -10z"/>
<path d="M2390 2525 c0 -42 3 -55 15 -55 12 0 15 13 15 55 0 42 -3 55 -15 55
-12 0 -15 -13 -15 -55z"/>
<path d="M6728 2562 c-56 -18 -61 -36 -15 -56 65 -27 77 -28 77 -12 0 9 -4 16
-10 16 -5 0 -10 9 -10 19 0 11 5 23 10 26 12 7 14 25 3 24 -5 0 -29 -8 -55
-17z m22 -32 c0 -5 -4 -10 -9 -10 -6 0 -13 5 -16 10 -3 6 1 10 9 10 9 0 16 -4
16 -10z"/>
<path d="M2270 2510 c0 -22 5 -40 10 -40 6 0 10 18 10 40 0 22 -4 40 -10 40
-5 0 -10 -18 -10 -40z"/>
<path d="M2317 2544 c-14 -14 -7 -35 16 -45 l22 -10 -22 5 c-15 3 -23 -1 -23
-10 0 -9 11 -14 29 -14 33 0 46 13 34 33 -4 6 -8 19 -8 27 0 16 -36 26 -48 14z"/>
<path d="M2440 2536 c-29 -36 6 -79 48 -60 14 6 11 9 -13 14 l-30 8 28 1 c44
2 32 51 -13 51 -4 0 -13 -7 -20 -14z"/>
<path d="M820 1900 l0 -520 230 0 230 0 0 520 0 520 -230 0 -230 0 0 -520z
m450 0 l0 -510 -220 0 -220 0 0 510 0 510 220 0 220 0 0 -510z"/>
<path d="M1670 1900 l0 -520 230 0 230 0 0 520 0 520 -230 0 -230 0 0 -520z
m450 0 l0 -510 -220 0 -220 0 0 510 0 510 220 0 220 0 0 -510z"/>
<path d="M2480 1900 l0 -520 230 0 230 0 0 520 0 520 -230 0 -230 0 0 -520z
m450 0 l0 -510 -220 0 -220 0 0 510 0 510 220 0 220 0 0 -510z"/>
<path d="M3330 1900 l0 -520 230 0 230 0 0 520 0 520 -230 0 -230 0 0 -520z
m450 0 l0 -510 -220 0 -220 0 0 510 0 510 220 0 220 0 0 -510z"/>
<path d="M4120 1900 l0 -520 230 0 230 0 0 520 0 520 -230 0 -230 0 0 -520z
m450 0 l0 -510 -220 0 -220 0 0 510 0 510 220 0 220 0 0 -510z"/>
<path d="M4330 2047 c0 -7 5 -18 12 -25 9 -9 6 -12 -15 -12 -15 0 -27 -4 -27
-10 0 -5 25 -10 55 -10 30 0 55 5 55 10 0 6 -8 10 -17 10 -17 1 -17 1 0 14 17
14 23 36 9 36 -4 0 -14 -6 -20 -12 -10 -10 -17 -10 -32 0 -16 10 -20 10 -20
-1z"/>
<path d="M4337 1963 c-12 -11 -8 -40 8 -53 9 -7 25 -10 41 -6 20 5 25 12 22
33 -2 15 -9 28 -16 31 -8 2 -11 -5 -10 -20 2 -15 -2 -23 -12 -23 -10 0 -14 8
-13 23 3 21 -7 29 -20 15z"/>
<path d="M4334 1876 c-8 -22 -1 -49 15 -54 9 -3 11 2 7 19 l-6 24 11 -22 c7
-13 20 -23 31 -23 14 0 18 8 18 35 0 33 -2 35 -35 35 -22 0 -38 -6 -41 -14z"/>
<path d="M4310 1796 c-6 -6 -10 -25 -10 -43 l0 -33 55 0 c30 0 55 5 55 10 0 6
-9 10 -20 10 -13 0 -20 7 -20 20 0 13 7 20 20 20 11 0 20 6 20 13 0 15 -86 17
-100 3z m40 -36 c0 -11 -7 -20 -15 -20 -8 0 -15 9 -15 20 0 11 7 20 15 20 8 0
15 -9 15 -20z"/>
<path d="M4906 1375 c-7 -20 7 -33 37 -33 22 0 27 5 27 24 0 19 -5 23 -30 22
-16 -1 -31 -6 -34 -13z"/>
<path d="M4911 1316 c-18 -22 -2 -48 28 -44 18 2 27 10 29 26 2 12 -2 22 -8
22 -7 0 -10 -7 -6 -15 3 -8 1 -15 -4 -15 -6 0 -10 9 -10 20 0 23 -13 26 -29 6z"/>
<path d="M4897 1248 c-9 -6 -8 -10 2 -17 8 -5 11 -17 7 -28 -7 -23 9 -40 39
-39 14 1 21 9 23 28 3 22 -1 27 -25 31 l-28 4 28 2 c38 2 35 26 -4 26 -17 0
-36 -3 -42 -7z"/>
<path d="M4892 1138 c-30 -30 -2 -72 45 -66 24 3 28 8 31 41 3 34 1 37 -22 37
-19 0 -26 -5 -26 -20 0 -22 15 -27 23 -7 3 6 6 2 6 -11 1 -19 -4 -23 -21 -20
-18 2 -22 9 -20 31 3 30 1 32 -16 15z"/>
<path d="M5941 433 c1 -26 4 -38 6 -25 3 16 11 22 29 22 21 0 25 4 22 23 -2
16 -11 23 -30 25 -27 3 -28 2 -27 -45z m49 22 c0 -8 -9 -15 -20 -15 -11 0 -20
7 -20 15 0 8 9 15 20 15 11 0 20 -7 20 -15z"/>
<path d="M6140 435 c0 -25 5 -45 10 -45 6 0 10 8 10 18 1 16 1 16 11 0 5 -10
19 -18 29 -18 16 0 20 7 20 36 0 21 -4 33 -10 29 -5 -3 -10 -17 -10 -31 0 -16
-4 -23 -11 -18 -6 3 -8 17 -4 32 5 22 4 24 -9 13 -14 -12 -16 -10 -16 8 0 11
-4 21 -10 21 -5 0 -10 -20 -10 -45z"/>
<path d="M6025 451 c-3 -7 0 -8 9 -5 9 3 16 1 16 -5 0 -6 -7 -11 -15 -11 -8 0
-15 -9 -15 -20 0 -15 7 -20 26 -20 23 0 25 3 22 32 -3 33 -29 50 -43 29z m30
-41 c-3 -5 -10 -10 -16 -10 -5 0 -9 5 -9 10 0 6 7 10 16 10 8 0 12 -4 9 -10z"/>
<path d="M6085 441 c-8 -26 4 -51 26 -51 10 0 19 4 19 10 0 5 -6 7 -14 4 -8
-3 -17 -1 -20 4 -10 16 5 44 21 38 8 -3 11 -1 8 4 -10 16 -33 11 -40 -9z"/>
<path d="M6231 421 c1 -36 1 -36 8 -6 3 17 11 30 16 30 5 0 13 -13 17 -30 6
-29 6 -29 5 5 -2 29 -6 35 -24 36 -20 1 -23 -3 -22 -35z"/>
<path d="M6300 440 c-13 -25 -2 -50 22 -50 10 0 17 -4 13 -10 -3 -5 -13 -6
-23 -3 -14 5 -15 3 -5 -7 19 -21 43 6 43 49 0 30 -4 37 -20 38 -11 1 -24 -7
-30 -17z m37 -24 c-4 -9 -11 -16 -17 -16 -11 0 -14 33 -3 43 11 11 26 -10 20
-27z"/>
<path d="M6405 451 c-3 -7 0 -8 9 -5 9 3 16 1 16 -5 0 -6 -7 -11 -15 -11 -8 0
-15 -9 -15 -20 0 -15 7 -20 26 -20 23 0 25 3 22 32 -3 33 -29 50 -43 29z m30
-41 c-3 -5 -10 -10 -16 -10 -5 0 -9 5 -9 10 0 6 7 10 16 10 8 0 12 -4 9 -10z"/>
<path d="M6467 453 c-11 -10 -8 -63 3 -63 6 0 10 10 10 23 0 13 5 28 12 35 9
9 9 12 -3 12 -9 0 -19 -3 -22 -7z"/>
<path d="M6511 446 c-27 -33 14 -76 43 -46 8 9 6 11 -11 5 -14 -4 -23 -2 -23
4 0 6 9 11 21 11 14 0 19 5 17 17 -4 23 -31 28 -47 9z m34 -6 c3 -5 -1 -10 -9
-10 -9 0 -16 5 -16 10 0 6 4 10 9 10 6 0 13 -4 16 -10z"/>
<path d="M6574 449 c-5 -9 -2 -10 9 -6 9 3 19 2 22 -2 2 -5 -4 -11 -15 -14
-32 -8 -25 -37 9 -37 27 0 28 2 22 32 -7 34 -33 49 -47 27z m31 -39 c-3 -5
-10 -10 -16 -10 -5 0 -9 5 -9 10 0 6 7 10 16 10 8 0 12 -4 9 -10z"/>
<path d="M340 385 c0 -25 5 -45 10 -45 6 0 10 20 10 45 0 25 -4 45 -10 45 -5
0 -10 -20 -10 -45z"/>
<path d="M927 423 c-9 -9 -9 -91 1 -96 4 -3 7 19 7 49 0 30 0 54 -1 54 0 0 -4
-3 -7 -7z"/>
<path d="M961 383 c1 -26 4 -38 6 -25 6 29 43 31 43 2 0 -11 4 -20 9 -20 5 0
8 19 7 43 -2 39 -4 42 -34 45 l-32 3 1 -48z m49 22 c0 -8 -9 -15 -20 -15 -11
0 -20 7 -20 15 0 8 9 15 20 15 11 0 20 -7 20 -15z"/>
<path d="M1501 404 c6 -21 7 -39 0 -57 -6 -15 -7 -27 -2 -27 9 0 21 34 21 61
0 8 -7 24 -15 35 -14 17 -14 17 -4 -12z"/>
<path d="M3032 418 c-7 -7 -12 -21 -12 -33 0 -29 19 -45 51 -45 20 0 28 6 33
25 13 50 -38 87 -72 53z m56 -32 c2 -17 0 -26 -6 -22 -6 3 -12 1 -14 -6 -7
-19 -28 1 -28 26 0 46 43 49 48 2z"/>
<path d="M3253 385 c0 -27 2 -38 4 -22 2 15 2 37 0 50 -2 12 -4 0 -4 -28z"/>
<path d="M3437 424 c-10 -10 -9 -56 2 -72 10 -17 53 -12 59 6 3 11 1 11 -17 0
-18 -11 -23 -11 -31 2 -25 39 4 76 37 49 14 -12 16 -12 11 1 -5 16 -49 26 -61
14z"/>
<path d="M3793 385 c0 -27 2 -38 4 -22 2 15 2 37 0 50 -2 12 -4 0 -4 -28z"/>
<path d="M577 413 c-6 -11 4 -73 12 -73 7 0 6 68 -2 76 -3 3 -7 2 -10 -3z"/>
<path d="M1299 415 c-7 -6 2 -75 10 -75 3 0 6 15 6 34 0 34 -7 51 -16 41z"/>
<path d="M3307 413 c-7 -11 4 -73 12 -73 4 0 6 15 3 33 -4 26 -2 30 9 20 7 -7
13 -29 13 -48 0 -19 2 -35 4 -35 8 0 43 92 37 98 -3 3 -8 -4 -12 -16 -6 -25
-23 -30 -23 -7 0 16 -36 39 -43 28z"/>
<path d="M3649 415 c-7 -6 2 -75 10 -75 3 0 6 15 6 34 0 34 -7 51 -16 41z"/>
<path d="M377 404 c-11 -11 -8 -64 3 -64 6 0 10 11 10 24 0 14 5 28 10 31 6 4
10 -7 10 -24 0 -17 5 -31 11 -31 6 0 9 14 7 33 -2 23 -8 33 -23 35 -12 2 -24
0 -28 -4z"/>
<path d="M441 356 c1 -28 3 -43 6 -33 2 9 13 17 23 17 20 0 32 31 19 51 -4 8
-17 15 -29 15 -18 1 -20 -4 -19 -50z m39 13 c0 -20 -15 -26 -25 -9 -9 15 3 43
15 35 5 -3 10 -15 10 -26z"/>
<path d="M512 378 c-2 -34 0 -38 23 -38 22 0 25 4 24 38 -1 35 -2 35 -8 8 -9
-42 -29 -44 -34 -4 l-4 33 -1 -37z"/>
<path d="M644 399 c-5 -9 -2 -10 9 -6 9 3 19 2 22 -2 2 -5 -4 -11 -15 -14 -32
-8 -25 -37 9 -37 27 0 28 2 22 32 -7 34 -33 49 -47 27z m31 -39 c-3 -5 -10
-10 -16 -10 -5 0 -9 5 -9 10 0 6 7 10 16 10 8 0 12 -4 9 -10z"/>
<path d="M711 373 c1 -28 3 -31 6 -13 3 14 10 31 15 38 8 9 6 12 -6 12 -12 0
-16 -9 -15 -37z"/>
<path d="M751 391 c-6 -11 -8 -27 -5 -35 7 -18 39 -21 50 -5 4 8 0 9 -15 4
-12 -4 -21 -2 -21 4 0 6 9 11 21 11 14 0 19 5 17 17 -5 25 -35 28 -47 4z m34
-1 c3 -5 -1 -10 -10 -10 -9 0 -13 5 -10 10 3 6 8 10 10 10 2 0 7 -4 10 -10z"/>
<path d="M820 400 c0 -5 7 -7 15 -4 8 4 15 2 15 -4 0 -5 -9 -12 -21 -15 -29
-8 -19 -31 14 -35 21 -3 27 1 27 17 0 33 -11 51 -31 51 -10 0 -19 -4 -19 -10z
m30 -40 c0 -5 -4 -10 -10 -10 -5 0 -10 5 -10 10 0 6 5 10 10 10 6 0 10 -4 10
-10z"/>
<path d="M1044 396 c-10 -26 1 -51 24 -54 12 -2 22 1 22 7 0 6 -6 8 -14 5 -8
-3 -17 -1 -21 5 -3 7 3 11 15 11 15 0 20 5 18 17 -4 23 -36 29 -44 9z m31 -6
c3 -5 -1 -10 -10 -10 -9 0 -13 5 -10 10 3 6 8 10 10 10 2 0 7 -4 10 -10z"/>
<path d="M1110 395 c-16 -19 -3 -55 21 -55 10 0 19 4 19 10 0 5 -7 7 -15 4
-11 -5 -15 1 -15 21 0 20 4 26 15 21 8 -3 15 -1 15 4 0 15 -26 12 -40 -5z"/>
<path d="M1171 391 c-6 -11 -8 -27 -5 -35 7 -18 39 -21 50 -5 4 8 0 9 -15 4
-12 -4 -21 -2 -21 4 0 6 9 11 21 11 14 0 19 5 17 17 -5 25 -35 28 -47 4z m34
-1 c3 -5 -1 -10 -10 -10 -9 0 -13 5 -10 10 3 6 8 10 10 10 2 0 7 -4 10 -10z"/>
<path d="M1230 365 c0 -25 5 -45 10 -45 6 0 10 5 10 10 0 6 6 10 14 10 21 0
29 17 22 46 -5 17 -13 24 -31 24 -23 0 -25 -4 -25 -45z m45 10 c0 -10 -6 -20
-12 -22 -8 -3 -13 5 -13 22 0 17 5 25 13 23 6 -3 12 -13 12 -23z"/>
<path d="M1337 403 c-11 -10 -8 -63 3 -63 6 0 10 16 10 35 0 36 -2 40 -13 28z"/>
<path d="M1364 396 c-10 -26 0 -51 21 -51 16 0 20 7 20 30 0 33 -30 49 -41 21z
m36 -27 c0 -10 -7 -19 -15 -19 -15 0 -21 31 -9 43 11 10 24 -3 24 -24z"/>
<path d="M1431 373 c1 -36 2 -37 8 -8 3 17 11 30 16 30 5 0 13 -13 17 -30 6
-29 6 -29 5 5 -2 28 -6 36 -24 38 -21 3 -23 -1 -22 -35z"/>
<path d="M3122 378 c-2 -34 0 -38 23 -38 22 0 25 4 24 38 -1 35 -2 35 -8 8 -9
-42 -29 -44 -34 -4 l-4 33 -1 -37z"/>
<path d="M3190 400 c0 -5 7 -7 15 -4 8 4 15 2 15 -4 0 -5 -9 -12 -21 -15 -29
-8 -19 -31 14 -35 21 -3 27 1 27 17 0 33 -11 51 -31 51 -10 0 -19 -4 -19 -10z
m30 -40 c0 -5 -4 -10 -10 -10 -5 0 -10 5 -10 10 0 6 5 10 10 10 6 0 10 -4 10
-10z"/>
<path d="M3283 375 c0 -22 2 -30 4 -17 2 12 2 30 0 40 -3 9 -5 -1 -4 -23z"/>
<path d="M3521 396 c-19 -23 -4 -58 22 -54 17 2 22 10 22 33 0 34 -24 45 -44
21z m36 -30 c-4 -9 -11 -16 -17 -16 -11 0 -14 33 -3 43 11 11 26 -10 20 -27z"/>
<path d="M3587 404 c-11 -11 -8 -64 3 -64 6 0 10 11 10 24 0 14 5 28 10 31 6
4 10 -7 10 -24 0 -17 5 -31 11 -31 6 0 9 14 7 33 -2 23 -8 33 -23 35 -12 2
-24 0 -28 -4z"/>
<path d="M3687 403 c-11 -10 -8 -63 3 -63 6 0 10 10 10 23 0 13 5 28 12 35 9
9 9 12 -3 12 -9 0 -19 -3 -22 -7z"/>
<path d="M3726 392 c-10 -30 4 -53 28 -50 31 4 30 62 -1 66 -14 2 -23 -3 -27
-16z m41 -8 c8 -20 -13 -42 -27 -28 -12 12 -3 44 11 44 5 0 12 -7 16 -16z"/>
<path d="M8142 368 c-7 -7 -12 -21 -12 -33 0 -47 62 -63 81 -21 22 47 -33 90
-69 54z m53 -33 c0 -23 -4 -30 -20 -30 -21 0 -31 25 -21 51 11 28 41 12 41
-21z"/>
<path d="M8812 368 c-20 -20 -13 -98 9 -98 4 0 4 13 -2 28 -6 19 -6 38 0 55
12 30 10 32 -7 15z"/>
<path d="M8880 371 c0 -5 -9 -11 -20 -14 -15 -4 -20 -14 -20 -36 0 -26 4 -31
25 -31 23 0 25 4 25 45 0 25 -2 45 -5 45 -3 0 -5 -4 -5 -9z m-4 -57 c-5 -13
-10 -14 -18 -6 -6 6 -8 18 -4 28 5 13 10 14 18 6 6 -6 8 -18 4 -28z"/>
<path d="M9030 335 c0 -25 5 -45 10 -45 6 0 10 8 10 18 1 15 2 15 10 1 11 -18
76 -24 86 -8 4 7 -1 9 -15 4 -12 -4 -21 -2 -21 4 0 6 9 11 20 11 23 0 27 28 5
36 -20 8 -45 -13 -45 -38 0 -11 -4 -16 -11 -12 -6 3 -8 17 -4 32 5 22 4 24 -9
13 -14 -12 -16 -10 -16 8 0 11 -4 21 -10 21 -5 0 -10 -20 -10 -45z m105 5 c3
-5 -1 -10 -10 -10 -9 0 -13 5 -10 10 3 6 8 10 10 10 2 0 7 -4 10 -10z"/>
<path d="M9205 325 c0 -29 3 -51 8 -48 4 2 7 24 7 48 0 24 -3 46 -7 48 -5 3
-8 -19 -8 -48z"/>
<path d="M8297 363 c-6 -11 4 -73 12 -73 7 0 6 68 -2 76 -3 3 -7 2 -10 -3z"/>
<path d="M8448 362 c-12 -2 -18 -13 -18 -33 0 -16 -4 -29 -10 -29 -5 0 -10 14
-10 30 0 17 -5 30 -11 30 -6 0 -9 -14 -7 -32 2 -27 8 -34 30 -36 23 -3 27 1
31 30 l4 33 1 -32 c3 -44 17 -42 17 1 0 40 -3 44 -27 38z"/>
<path d="M8232 328 c-2 -34 0 -38 23 -38 22 0 25 4 24 38 l-1 37 -9 -32 c-5
-18 -14 -33 -19 -33 -5 0 -11 15 -13 33 -4 31 -4 31 -5 -5z"/>
<path d="M8330 313 c0 -26 4 -43 8 -37 4 6 15 13 25 17 27 10 19 61 -10 65
-21 3 -23 -1 -23 -45z m37 3 c-4 -9 -11 -16 -17 -16 -11 0 -14 33 -3 43 11 11
26 -10 20 -27z"/>
<path d="M8534 349 c-5 -9 -2 -10 9 -6 10 3 17 2 17 -3 0 -6 -6 -10 -14 -10
-15 0 -28 -24 -19 -34 4 -3 17 -6 30 -6 21 0 24 4 21 32 -3 34 -29 50 -44 27z
m26 -39 c0 -5 -4 -10 -10 -10 -5 0 -10 5 -10 10 0 6 5 10 10 10 6 0 10 -4 10
-10z"/>
<path d="M8597 353 c-11 -10 -8 -63 3 -63 6 0 10 10 10 23 0 13 5 28 12 35 9
9 9 12 -3 12 -9 0 -19 -3 -22 -7z"/>
<path d="M8641 346 c-27 -33 14 -76 43 -46 8 9 6 11 -11 5 -14 -4 -23 -2 -23
4 0 6 9 11 21 11 14 0 19 5 17 17 -4 23 -31 28 -47 9z m34 -6 c3 -5 -1 -10
-10 -10 -9 0 -13 5 -10 10 3 6 8 10 10 10 2 0 7 -4 10 -10z"/>
<path d="M8704 349 c-5 -9 -2 -10 9 -6 9 3 19 2 22 -3 4 -6 -3 -10 -14 -10
-14 0 -21 -6 -21 -20 0 -15 7 -20 29 -20 27 0 28 2 22 32 -7 34 -33 49 -47 27z
m31 -39 c-3 -5 -10 -10 -16 -10 -5 0 -9 5 -9 10 0 6 7 10 16 10 8 0 12 -4 9
-10z"/>
<path d="M8911 346 c-19 -23 -4 -58 22 -54 17 2 22 10 22 33 0 34 -24 45 -44
21z m36 -30 c-4 -9 -11 -16 -17 -16 -11 0 -14 33 -3 43 11 11 26 -10 20 -27z"/>
<path d="M8974 336 c-3 -14 -3 -30 1 -35 8 -14 45 -14 45 0 0 5 -5 7 -11 3
-14 -8 -29 14 -22 33 3 8 12 12 19 9 8 -3 14 -1 14 4 0 22 -40 9 -46 -14z"/>
<path d="M9161 321 c2 -30 3 -32 6 -8 2 15 9 27 14 27 5 0 9 4 9 8 0 5 -7 9
-15 9 -11 0 -15 -10 -14 -36z"/>
<path d="M4904 4000 c0 -16 7 -20 33 -20 18 0 33 5 33 10 0 6 -9 10 -19 10
-11 0 -23 5 -26 10 -10 16 -21 11 -21 -10z"/>
<path d="M4912 3958 c-17 -17 -15 -37 3 -45 14 -5 14 -8 -2 -25 -22 -24 -7
-53 28 -53 18 0 25 6 27 24 2 13 -2 28 -10 32 -11 8 -11 10 0 18 8 4 12 19 10
32 -3 27 -36 37 -56 17z m42 -17 c3 -5 0 -11 -8 -14 -15 -6 -26 1 -26 15 0 11
27 10 34 -1z m1 -70 c7 -12 -12 -24 -25 -16 -11 7 -4 25 10 25 5 0 11 -4 15
-9z"/>
<path d="M4892 3808 c-6 -6 -12 -22 -12 -35 0 -21 5 -23 46 -23 45 0 45 0 42
33 -3 27 -7 32 -33 35 -17 2 -36 -3 -43 -10z m58 -23 c0 -9 -9 -15 -25 -15
-16 0 -25 6 -25 15 0 9 9 15 25 15 16 0 25 -6 25 -15z"/>
</g>
</svg>
